<svg id="Calque_1" data-name="Calque 1" xmlns="http://www.w3.org/2000/svg" viewBox="0 0 2000 500"><defs><style>.cls-1{fill:#4f6cb2;}.cls-2{fill:#fff;}</style></defs><rect class="cls-1" width="2000" height="500"/><path class="cls-2" d="M789.05,82.5h62.1L899.3,271.05h.9V82.5h44.1v315H893.45l-59.4-229.95h-.9v230h-44.1Z"/><path class="cls-2" d="M996.94,381.3q-19.35-20.7-19.35-58.5V157.2q0-37.8,19.35-58.5t55.8-20.7q36.45,0,55.8,20.7t19.35,58.5V322.8q0,37.8-19.35,58.5t-55.8,20.7Q1016.29,402,996.94,381.3ZM1078.39,326V154.05q0-31.05-25.65-31.05t-25.65,31.05V326q0,31.05,25.65,31.05T1078.39,326Z"/><path class="cls-2" d="M1198.09,127.5h-51.75v-45h153v45h-51.75v270h-49.5Z"/><path class="cls-2" d="M1323.19,82.5h135v45h-85.5v83.25h68v45h-68V352.5h85.5v45h-135Z"/><path class="cls-2" d="M1502.29,381.3q-19.36-20.7-19.35-58.5V157.2q0-37.8,19.35-58.5t55.8-20.7q36.45,0,55.8,20.7t19.35,58.5V322.8q0,37.8-19.35,58.5t-55.8,20.7Q1521.64,402,1502.29,381.3ZM1583.74,326V154.05q0-31.05-25.65-31.05t-25.65,31.05V326q0,31.05,25.65,31.05T1583.74,326Z"/><rect class="cls-2" x="599.69" y="159.38" width="44.02" height="238.12"/><rect class="cls-2" x="522.38" y="82.5" width="44.02" height="315"/><rect class="cls-2" x="445.07" y="240" width="44.02" height="157.5"/><rect class="cls-2" x="367.76" y="128.2" width="44.02" height="268.37"/></svg>